<?xml version="1.0" standalone="no"?>
<!DOCTYPE svg PUBLIC "-//W3C//DTD SVG 20010904//EN"
 "http://www.w3.org/TR/2001/REC-SVG-20010904/DTD/svg10.dtd">
<svg version="1.0" xmlns="http://www.w3.org/2000/svg"
 width="200.000000pt" height="200.000000pt" viewBox="0 0 200.000000 200.000000"
 preserveAspectRatio="xMidYMid meet">
<metadata>
Created by potrace 1.14, written by Peter Selinger 2001-2017
</metadata>
<g transform="translate(0.000000,200.000000) scale(0.100000,-0.100000)"
fill="#000000" stroke="none">
<path d="M990 1715 c-22 -12 -447 -430 -496 -488 -27 -32 -32 -93 -12 -130 6
-12 120 -131 253 -263 252 -252 268 -264 335 -249 21 5 98 75 268 244 131 131
246 249 255 262 10 13 17 43 17 67 0 40 -5 49 -62 109 -126 130 -438 437 -455
447 -26 14 -77 15 -103 1z"/>
<path d="M1840 511 c-7 -15 -6 -24 6 -36 19 -18 33 -16 48 7 7 12 6 21 -3 32
-18 22 -38 20 -51 -3z"/>
<path d="M100 371 l0 -147 70 1 c99 2 100 5 100 145 0 142 -3 147 -102 147
l-68 1 0 -147z m110 -2 c0 -97 0 -99 -23 -99 -23 0 -23 2 -23 98 -1 95 6 115
33 105 10 -4 13 -31 13 -104z"/>
<path d="M520 372 c0 -136 2 -149 18 -147 9 0 23 4 29 8 6 4 14 3 18 -3 10
-16 62 -12 79 6 18 17 18 22 18 111 -1 86 -13 106 -63 101 l-39 -4 0 38 c0 36
-2 38 -30 38 l-30 0 0 -148z m100 -31 c0 -72 -4 -83 -26 -74 -10 4 -14 24 -14
72 0 60 2 67 20 68 18 2 20 -4 20 -66z"/>
<path d="M815 377 c0 -78 3 -144 7 -147 5 -4 95 -5 130 -1 4 1 14 8 22 17 13
12 16 39 16 123 0 139 -4 144 -101 147 l-74 2 0 -141z m109 0 c-2 -114 0 -107
-24 -107 -19 0 -20 7 -20 98 0 54 3 101 6 104 3 3 13 4 22 1 15 -4 17 -17 16
-96z"/>
<path d="M316 441 c-1 -4 -2 -48 0 -100 2 -124 7 -127 156 -112 4 1 7 49 5
108 l-2 106 -27 4 -28 4 0 -90 c0 -69 -3 -90 -15 -95 -22 -8 -31 21 -29 89 3
79 -1 91 -32 91 -14 0 -26 -2 -28 -5z"/>
<path d="M1047 430 c-8 -12 -15 -50 -16 -95 -2 -64 1 -77 20 -96 18 -18 30
-21 71 -17 27 3 54 10 60 16 17 17 15 177 -2 196 -20 25 -115 22 -133 -4z m87
-95 c1 -65 -1 -70 -21 -73 -22 -3 -23 -1 -23 73 0 73 1 76 22 73 20 -3 22 -9
22 -73z"/>
<path d="M1237 435 c-2 -5 -3 -55 -3 -110 1 -107 -1 -103 55 -96 4 1 8 40 7
89 -1 81 0 87 19 87 18 0 20 -7 22 -75 1 -41 2 -82 2 -91 1 -11 10 -15 29 -14
l27 1 2 90 c3 122 -6 134 -92 131 -35 -1 -66 -6 -68 -12z"/>
<path d="M1461 441 c-8 -5 -17 -26 -20 -47 -7 -45 1 -149 12 -161 5 -4 32 -8
60 -9 59 -3 87 15 87 53 0 19 -5 23 -29 23 -21 0 -30 -6 -34 -21 -8 -29 -31
-19 -35 14 -3 26 -2 27 47 27 l51 0 0 49 c0 64 -17 81 -78 81 -26 0 -53 -4
-61 -9z m79 -56 c0 -18 -5 -25 -20 -25 -15 0 -20 7 -20 25 0 18 5 25 20 25 15
0 20 -7 20 -25z"/>
<path d="M1647 432 c-23 -25 -22 -85 1 -105 10 -10 35 -17 56 -17 33 0 37 -3
34 -22 -4 -28 -21 -33 -43 -12 -25 26 -65 28 -65 3 0 -35 35 -58 84 -57 61 1
76 14 78 66 2 53 -16 73 -67 76 -40 2 -56 18 -33 32 21 14 36 13 42 -2 3 -8
17 -14 31 -14 29 0 35 29 9 54 -23 23 -106 21 -127 -2z"/>
<path d="M1839 446 c-1 -2 -1 -169 0 -198 1 -19 6 -25 19 -23 9 2 22 4 29 4 8
1 11 33 10 108 l-2 107 -27 1 c-16 1 -28 1 -29 1z"/>
</g>
</svg>
